<mxfile host="app.diagrams.net" modified="2024-03-25T20:23:45.129Z" agent="Mozilla/5.0 (Windows NT 10.0; Win64; x64) AppleWebKit/537.36 (KHTML, like Gecko) Chrome/123.0.0.0 Safari/537.36" version="24.1.0" etag="WF1QHAYWQ5puCU0TzVRF" type="github">
  <diagram name="Seite-1" id="6OCSbtw3k_jiV32zAac3">
    <mxGraphModel>
      <root>
        <mxCell id="0" />
        <mxCell id="1" parent="0" />
      </root>
    </mxGraphModel>
  </diagram>
</mxfile>
